<?xml version="1.0" encoding="utf-8"?>
<!-- Generator: Adobe Illustrator 21.1.0, SVG Export Plug-In . SVG Version: 6.00 Build 0)  -->
<svg version="1.1" id="Layer_1" xmlns="http://www.w3.org/2000/svg" xmlns:xlink="http://www.w3.org/1999/xlink" x="0px" y="0px"
	 viewBox="0 0 94.9 91.8" style="enable-background:new 0 0 94.9 91.8;" xml:space="preserve">
<style type="text/css">
	.st0{fill:#FFFFFF;}
</style>
<g>
	<path class="st0" d="M5270.5,2396v-2c0-2.8-5-4-9.7-4s-9.7,1.3-9.7,4v2c0,1.8,0.7,3.6,2,4.9l5,4.9c0.3,0.3,0.4,0.6,0.4,1v6.4
		c0,0.4,0.2,0.7,0.6,0.8l2.9,0.9c0.5,0.1,1-0.2,1-0.8v-7.2c0-0.4,0.2-0.7,0.4-1l5.1-5C5269.8,2399.6,5270.5,2397.8,5270.5,2396z
		 M5260.8,2395.9c-4.8,0-7.4-1.3-7.5-1.8l0,0c0.1-0.5,2.7-1.8,7.5-1.8s7.3,1.3,7.5,1.8C5268.1,2394.6,5265.6,2395.9,5260.8,2395.9z"
		/>
	<path class="st0" d="M5265.8,2406.2c-0.6,0-1,0.4-1,1s0.4,1,1,1h4.3c0.6,0,1-0.4,1-1s-0.4-1-1-1H5265.8z"/>
	<path class="st0" d="M5270.1,2409.6h-4.3c-0.6,0-1,0.4-1,1s0.4,1,1,1h4.3c0.6,0,1-0.4,1-1C5271.1,2410,5270.7,2409.6,5270.1,2409.6
		z"/>
	<path class="st0" d="M5270.1,2412.9h-4.3c-0.6,0-1,0.4-1,1s0.4,1,1,1h4.3c0.6,0,1-0.4,1-1
		C5271.1,2413.4,5270.7,2412.9,5270.1,2412.9z"/>
</g>
<g>
	<path class="st0" d="M21.9,68.9l-0.1-0.5c-0.2-0.8-0.9-1.4-1.7-1.4h-9.7c-0.8,0-1.5,0.6-1.7,1.4l-0.1,0.5C7,75.4,4.2,81.4,0.3,86.8
		c-0.3,0.5-0.4,1-0.3,1.6c0.2,0.6,0.6,1,1.1,1.2c1,0.4,2.1,0.7,3.2,1c2.9-3.9,5.1-8.3,6.5-13l0.1-0.4c0.3-1,1.4-1.6,2.4-1.3
		c1,0.3,1.6,1.3,1.3,2.4l-0.2,0.3c-1.3,4.6-3.4,8.9-6.1,12.8c2.3,0.4,4.6,0.6,6.9,0.6c4.8,0,9.6-0.8,14.1-2.4
		c0.5-0.2,0.9-0.6,1.1-1.2c0.2-0.5,0.1-1.1-0.3-1.6C26.3,81.4,23.5,75.4,21.9,68.9z"/>
	<path class="st0" d="M10.3,64.2h9.8c1,0,1.8-0.8,1.8-1.8V60c0-1-0.8-1.8-1.8-1.8h-2v-36c0-1.6-1.3-2.9-2.9-2.9s-2.9,1.3-2.9,2.9v36
		h-2c-1,0-1.8,0.8-1.8,1.8v2.4C8.6,63.4,9.4,64.2,10.3,64.2z"/>
	<path class="st0" d="M71.1,52.2c0.9,0,1.8-0.3,2.6-0.8c2.1-1.4,2.6-4.3,1.2-6.3L63,27.6c-2.1-3.1-5.5-4.9-9.2-4.9h-8.2
		c-3.1,0-6.2,1.3-8.3,3.7l-7.3,8h-8.4v9.1H32c1.3,0,2.5-0.5,3.4-1.5l3.2-3.5v48.7c0,2.5,2,4.6,4.6,4.6c2.5,0,4.6-2.1,4.6-4.6V59h4.4
		v28.3c0,2.5,2,4.6,4.6,4.6c2.5,0,4.6-2.1,4.6-4.6v-46l6.1,8.9C68.2,51.5,69.7,52.2,71.1,52.2z"/>
	<circle class="st0" cx="50" cy="10.1" r="10.1"/>
	<path class="st0" d="M93,71.9h-1.2v-0.1c0-6.1-5-11.1-11.1-11.1s-11.1,5-11.1,11.1v0.1h-1.2c-1,0-1.9,0.9-1.9,1.9s0.8,1.9,1.9,1.9
		H69l1.3,14.1c0.1,1.1,1.1,2,2.2,2h16.4c1.2,0,2.1-0.9,2.2-2l1.3-14.1H93c1,0,1.9-0.9,1.9-1.9S94,71.9,93,71.9z M73.4,71.8
		c0-4,3.3-7.3,7.3-7.3s7.3,3.3,7.3,7.3v0.1L73.4,71.8L73.4,71.8z"/>
</g>
</svg>
