<?xml version="1.0" encoding="utf-8"?>
<!-- Generator: Adobe Illustrator 21.1.0, SVG Export Plug-In . SVG Version: 6.00 Build 0)  -->
<svg version="1.1" id="Layer_1" xmlns="http://www.w3.org/2000/svg" xmlns:xlink="http://www.w3.org/1999/xlink" x="0px" y="0px"
	 viewBox="0 0 64.1 64.6" style="enable-background:new 0 0 64.1 64.6;" xml:space="preserve">
<style type="text/css">
	.st0{fill:#FFFFFF;}
</style>
<g>
	<ellipse transform="matrix(0.7071 -0.7071 0.7071 0.7071 -9.2937 33.7167)" class="st0" cx="36.1" cy="28.1" rx="4.3" ry="4.3"/>
	<path class="st0" d="M49.1,51.8c-1.3-1.3-3-2-4.7-2.2l-2.2-8.3c1.5-0.7,2.9-1.7,4.2-2.9c5-5,5.6-12.9,1.6-18.6l5.5-5.5
		c2.8,1.3,6.2,0.8,8.5-1.5c2.9-2.9,2.9-7.7,0-10.6c-2.9-2.9-7.7-2.9-10.6,0c-2.3,2.3-2.8,5.7-1.5,8.5l-5.5,5.6
		c-5.7-4-13.5-3.4-18.6,1.6c-1.3,1.3-2.3,2.9-3.1,4.5L15,20.3c-0.1-1.7-0.8-3.4-2.2-4.7c-2.9-2.9-7.7-2.9-10.6,0s-2.9,7.7,0,10.6
		s7.7,2.9,10.6,0c0.3-0.3,0.6-0.7,0.9-1l8,2.2c-0.2,4,1.2,8.1,4.2,11.1c3.1,3.1,7.4,4.5,11.5,4.2l2.2,8.3c-0.4,0.3-0.7,0.6-1.1,0.9
		c-2.9,2.9-2.9,7.7,0,10.6c2.9,2.8,7.6,2.8,10.6-0.1C52,59.4,52,54.7,49.1,51.8z M29.4,34.8c-3.7-3.7-3.7-9.7,0-13.4s9.7-3.7,13.4,0
		s3.7,9.7,0,13.4S33.1,38.5,29.4,34.8z"/>
</g>
</svg>
