<svg id="Layer_1" data-name="Layer 1" xmlns="http://www.w3.org/2000/svg" viewBox="0 0 64.15 64.56"><defs><style>.cls-1{fill:#304d5c;}</style></defs><title>covid_central_logo_dark</title><circle class="cls-1" cx="36.1" cy="28.06" r="4.3" transform="translate(-9.29 33.72) rotate(-45)"/><path class="cls-1" d="M49.1,51.8a7.92,7.92,0,0,0-4.7-2.2l-2.2-8.3a16.63,16.63,0,0,0,4.2-2.9A14.56,14.56,0,0,0,48,19.8l5.5-5.5A7.51,7.51,0,0,0,62,2.2a7.51,7.51,0,0,0-12.1,8.5l-5.5,5.6a14.57,14.57,0,0,0-18.6,1.6,17.21,17.21,0,0,0-3.1,4.5L15,20.3a6.91,6.91,0,0,0-2.2-4.7,7.5,7.5,0,1,0,0,10.6c.3-.3.6-.7.9-1l8,2.2A14.48,14.48,0,0,0,37.4,42.7L39.6,51c-.4.3-.7.6-1.1.9a7.54,7.54,0,0,0,0,10.6,7.64,7.64,0,0,0,10.6-.1A7.54,7.54,0,0,0,49.1,51.8Zm-19.7-17a9.48,9.48,0,1,1,13.4,0A9.48,9.48,0,0,1,29.4,34.8Z" transform="translate(-0.02 -0.02)"/></svg>