<?xml version="1.0" encoding="utf-8"?>
<!-- Generator: Adobe Illustrator 21.1.0, SVG Export Plug-In . SVG Version: 6.00 Build 0)  -->
<svg version="1.1" id="Layer_1" xmlns="http://www.w3.org/2000/svg" xmlns:xlink="http://www.w3.org/1999/xlink" x="0px" y="0px"
	 viewBox="0 0 84 78" style="enable-background:new 0 0 84 78;" xml:space="preserve">
<style type="text/css">
	.st0{fill:#FFFFFF;}
</style>
<path class="st0" d="M84,70.5c0,4.1-3.4,7.5-7.5,7.5H3c-1.6,0-2.9-1.2-3-2.8c-0.1-1.6,1-3,2.6-3.2l63-9c0.1,0,0.3,0,0.4,0h10.5
	C80.6,63,84,66.4,84,70.5z"/>
<path class="st0" d="M57.9,41.1c-1.2-1.2-1.2-3.1,0-4.2l9-9c0.6-0.6,1.3-0.9,2.1-0.9h12c1.7,0,3,1.3,3,3s-1.3,3-3,3h-3
	c0,0.1,0,0.2,0,0.3L75.6,57h-6L72,33h-1.7l-8.1,8.1C60.9,42.3,59,42.3,57.9,41.1z"/>
<path class="st0" d="M19.4,48l4.6,4c-0.3,0.4-0.5,0.8-0.8,1.1l-6,6c-1.2,1.2-3.1,1.2-4.2,0s-1.2-3.1,0-4.2l5.8-5.8L19.4,48z"/>
<path class="st0" d="M9.2,25.9c4-9.6,16.8-14.6,31.1-7.5c0.5,0.2,0.9,0.6,1.2,1.1c1.2,2,3.2,4.4,5.6,4.6c2.3,0.2,4.1-1.5,4.6-2.1
	c1.1-1.2,3-1.3,4.2-0.2c1.2,1.1,1.3,3,0.2,4.2c-2.8,3-6.3,4.3-9.6,4c-2.3-0.2-5.6-1.4-8.8-5.5l-5,12.6C32.3,38.3,31.2,39,30,39h-2.7
	l7.7,6.7c0.6,0.6,1,1.4,1,2.3v12c0,1.7-1.3,3-3,3s-3-1.3-3-3V49.4l-9.7-8.5c-2.2-1.8-2.9-4.8-1.8-7.5l5-11.9c-4.5,1-7.4,3.6-8.7,6.7
	c-0.6,1.5-2.4,2.3-3.9,1.6C9.3,29.1,8.6,27.4,9.2,25.9z"/>
<path class="st0" d="M33,7.5C33,3.4,36.4,0,40.5,0S48,3.4,48,7.5S44.6,15,40.5,15S33,11.6,33,7.5z"/>
</svg>
