<?xml version="1.0" encoding="utf-8"?>
<!-- Generator: Adobe Illustrator 21.1.0, SVG Export Plug-In . SVG Version: 6.00 Build 0)  -->
<svg version="1.1" id="Layer_1" xmlns="http://www.w3.org/2000/svg" xmlns:xlink="http://www.w3.org/1999/xlink" x="0px" y="0px"
	 viewBox="0 0 90 90" style="enable-background:new 0 0 90 90;" xml:space="preserve">
<style type="text/css">
	.st0{fill:#FFFFFF;}
</style>
<path class="st0" d="M6.8,0.9c-1.4-1.4-3.5-1.3-4.1,2C2.1,5.3,0.4,14.7,8.3,26.7c12.5,18.8,27.1,25.1,34.1,25.1
	c5.3,0,6.6,2.8,10.6,8.5C62.2,73.3,72.4,89.2,81,90c1.9,0.2,3.8-0.4,5.2-1.6c2.2-2.2,2.7-5.4-1.7-9.8L6.8,0.9z"/>
<path class="st0" d="M89.5,15.7L89.5,15.7c-0.8-0.8-1.9-0.8-2.7-0.1l-16,16c-0.5,0.8-1.6,1.1-2.4,0.6c-0.8-0.5-1.1-1.6-0.6-2.4
	c0.1-0.2,0.3-0.4,0.6-0.6l16-16c0.7-0.7,0.7-1.9,0-2.6c-0.7-0.7-1.9-0.7-2.6,0c0,0,0,0,0,0l-16,16c-0.7,0.8-1.9,1-2.7,0.3
	c-0.6-0.8-0.5-2,0.3-2.7l16-16c0.7-0.7,0.7-1.9,0-2.6c-0.7-0.7-1.9-0.7-2.6,0c0,0,0,0,0,0l-16,16c-0.7,0.8-1.9,1-2.7,0.3
	c-0.6-0.8-0.5-2,0.3-2.7l16-16c0.7-0.7,0.7-1.9,0-2.6c0,0,0,0,0,0l-0.1-0.1c-0.7-0.7-1.7-0.7-2.5-0.1l-9.7,8
	c-10.2,8.4-13.3,12.7-13.3,19.8c0.1,2.6-0.4,5.1-1.5,7.4l7,7c2.3-1,4.9-1.5,7.4-1.5c7.1,0,11.5-3.2,19.8-13.3l8-9.7
	C90.2,17.4,90.1,16.4,89.5,15.7z"/>
<path class="st0" d="M2.4,78.8c-3.2,4.4-2.9,7.2-0.6,9.5c2.3,2.3,5.1,2.6,9.5-0.6c12.5-9.3,21.2-21.3,30-31.9
	c-3.9-0.4-7.8-1.6-11.3-3.4C20.5,60,10.4,67.9,2.4,78.8z"/>
</svg>
