<svg id="Layer_1" data-name="Layer 1" xmlns="http://www.w3.org/2000/svg" viewBox="0 0 100.02 99.83"><defs><style>.cls-1{fill:#79589f;}</style></defs><title>get_help</title><path class="cls-1" d="M50.39,15.72l.94.08A18.48,18.48,0,0,1,58,17.52a11.2,11.2,0,0,1,4.58,3.91A10.9,10.9,0,0,1,63.81,30a10.68,10.68,0,0,1-2.53,4.21A28.88,28.88,0,0,1,57,37.75c-.82.6-1.63,1.21-2.43,1.84A5.14,5.14,0,0,0,53,41.88c-.18.47-.37.94-.56,1.4a3.21,3.21,0,0,1-3,2.15,4.26,4.26,0,0,1-2.18-.35,3.59,3.59,0,0,1-2-2.66,6.11,6.11,0,0,1,1-4.56A12.48,12.48,0,0,1,49,35c1.13-.92,2.29-1.8,3.41-2.73a9.09,9.09,0,0,0,2.36-2.69,5,5,0,0,0-.6-5.6,4.69,4.69,0,0,0-2.54-1.42,8.13,8.13,0,0,0-4,.06,4.91,4.91,0,0,0-3.11,2.59c-.41.75-.76,1.53-1.14,2.29a5.61,5.61,0,0,1-1.1,1.58,3.82,3.82,0,0,1-2.92.94,4.13,4.13,0,0,1-1.85-.5,3.2,3.2,0,0,1-1.68-2.84,8.3,8.3,0,0,1,1.75-5.27,13.41,13.41,0,0,1,5.21-4.19,15.48,15.48,0,0,1,4.9-1.4l1-.1Z" transform="translate(0 -0.09)"/><path class="cls-1" d="M48.68,61.35c-.26,0-.51-.09-.77-.16a4.76,4.76,0,1,1,2.08.08l-.43.08Z" transform="translate(0 -0.09)"/><path class="cls-1" d="M31.53,78c-2.41-.6-4.77-1-7-1.77C11.42,71.52,3.19,62.32.91,48.53c-1.26-7.62-1.45-15.5,1-23C6.45,11.37,16.21,2.88,31,.63,35.47-.06,40.13.22,44.72.18,51.47.12,58.23,0,65,.2,80.05.55,90.89,7.55,97.21,21.3a28.93,28.93,0,0,1,2.71,11.64,125.09,125.09,0,0,1-.27,14.75c-.91,8.62-5,15.77-11.45,21.5A34.67,34.67,0,0,1,63.2,78a4.81,4.81,0,0,0-4.11,1.79c-5.47,6-11,12-16.59,17.91a6.16,6.16,0,0,1-10.1-1,7.84,7.84,0,0,1-.8-3.45c-.09-4.75,0-9.49,0-14.24Zm6.22,15.6,1.06-1.12c6-6.49,12.09-13,18.09-19.5a3.43,3.43,0,0,1,2.82-1.22c3.72,0,7.45.22,11.12-.58a28.65,28.65,0,0,0,23-28.29c0-4.55.3-9.11-.61-13.64A28.52,28.52,0,0,0,65.29,6.44H36a32.71,32.71,0,0,0-6.4.66A28.56,28.56,0,0,0,7.1,30.74a84.11,84.11,0,0,0-.44,11.57,32.42,32.42,0,0,0,.53,6.3A28.71,28.71,0,0,0,34.86,71.78h2.89Z" transform="translate(0 -0.09)"/></svg>