<?xml version="1.0" encoding="utf-8"?>
<!-- Generator: Adobe Illustrator 21.1.0, SVG Export Plug-In . SVG Version: 6.00 Build 0)  -->
<svg version="1.1" id="Layer_1" xmlns="http://www.w3.org/2000/svg" xmlns:xlink="http://www.w3.org/1999/xlink" x="0px" y="0px"
	 viewBox="0 0 250 157.5" style="enable-background:new 0 0 250 157.5;" xml:space="preserve">
<style type="text/css">
	.st0{fill:#FFFFFF;}
</style>
<g transform="matrix(.81578 0 0 .81578 1.1766 1.1197)">
	<path class="st0" d="M120,60.7v49.5h27.6l2.7-14.1h8.6c-5.1,21.4-28.7,35.6-56.4,33.4c-26.3-2-54.5-16.9-54.4-44.7
		c0.1-30.7,27.6-48.4,53.3-49.5c17.2-0.7,36.5,5.9,50.4,17.4c0.8,0.7,1,0.8,1.1,0.9s0.2,0.1,0.9,0.7l0.8,0.6h30.7V0h-31.9v15.3
		c-13-7.6-33.6-14.9-57.3-14.8C69,0.6,42.6,11.7,23.6,30.9C8.1,46.7-0.2,65.9,0,85.2c0.2,18.9,8.8,37,24,50.9
		c19.4,17.7,47.8,26.9,75.8,24.6c21.8-1.8,41.2-6.6,55.4-13.7v5.4H189V96.2h8.1v62.5h-16.2v31.9h74.9v-31.9h-16.2V96.1h34.2
		l2.5,14.1H304V60.7L120,60.7L120,60.7z"/>
</g>
</svg>
