<?xml version="1.0" encoding="utf-8"?>
<!-- Generator: Adobe Illustrator 21.1.0, SVG Export Plug-In . SVG Version: 6.00 Build 0)  -->
<svg version="1.1" id="Layer_1" xmlns="http://www.w3.org/2000/svg" xmlns:xlink="http://www.w3.org/1999/xlink" x="0px" y="0px"
	 viewBox="0 0 1280 886" style="enable-background:new 0 0 1280 886;" xml:space="preserve">
<style type="text/css">
	.st0{fill:#FFFFFF;}
</style>
<g transform="translate(0.000000,886.000000) scale(0.100000,-0.100000)">
	<path class="st0" d="M6383,8603l-150-258l-299-3l-299-3l-150-259l-150-260l-294-2l-293-3l-150-257l-150-258l-187,1
		c-102,1-230,4-284,8l-98,6l-143,250l-143,250l-299,3l-299,3l-148,260l-149,259h-306h-307l-150-260l-150-259l-299-3l-300-3l-153-263
		l-153-263l153-267l153-267l299-3l300-3l120-211c66-116,131-231,144-254l24-43l-138-238c-76-131-144-245-152-253
		c-12-13-55-14-296-11l-282,3l-151-259l-150-258l-299-5l-299-5l-153-260C69,4812,2,4690,3,4684s69-129,152-273l150-261h297h296
		l141-246c78-136,141-250,141-254c0-5-64-118-141-251c-78-133-144-249-146-258s63-133,145-276l150-260l298-5l299-5l146-254l146-255
		l-85-145c-46-80-113-196-149-258l-65-111l153-266l153-266h297h296l149-260l148-260h311h310l140,242c77,133,147,250,155,261
		c15,18,27,18,295,10l279-8l145-253l144-252h297h297l149-260L5644,0h307h307l152,260l152,260h296h297l150,260l150,259l281,1h281
		l149-260l148-260h297h298l148-260L9205,0l309,2l310,3l150,258l150,257h297h296l151,260c84,143,152,266,151,272c0,7-67,128-148,268
		l-147,255l-115,6c-63,4-198,7-300,8l-186,1l-147,257c-108,188-145,261-139,274c4,9,69,120,143,248l135,231h297h296l152,260l152,260
		l295,2l296,3l150,259l151,259l294-4l295-4l149,255c82,140,152,260,154,266c3,7-63,132-147,278l-152,266h-296h-296l-150,260
		l-150,260h-310l-310-1l-150-259l-150-260h-166c-91,0-220,3-287,7l-121,6l-148,258l-148,259h-297h-296l-142,247l-141,248l18,31
		c10,17,74,128,143,247l125,216l310,1h310l153,265l153,264l-151,264l-152,265l-306,7c-278,7-307,6-318-9c-6-9-74-125-150-256
		l-139-240l-299,2l-299,3l-143,250c-79,138-144,252-144,255s67,120,148,260l149,254l-152,265l-152,266l-299,3l-299,2l-148,260
		l-148,260h-308h-308L6383,8603z M7269,8584c77-135,141-251,141-256c0-10-257-457-283-491c-11-15-38-16-296-9l-285,7l-142,247
		l-141,247l145,251l145,250h287h287L7269,8584z M2580,8300h105l112-198c62-108,126-220,142-247l29-50l-147-250l-146-250l-281-3
		c-258-2-282-1-296,15c-30,35-279,483-276,497c2,7,66,122,143,256l140,242l185-6C2392,8303,2522,8300,2580,8300z M6377,8057l143-249
		l-144-246l-143-247h-287h-287l-145,251l-144,250l143,247l142,246l290-2l290-2L6377,8057z M8161,8063c78-137,142-252,142-258
		c0-5-65-121-144-257l-143-247l-286,6c-244,5-287,8-298,21c-7,9-71,119-143,245c-117,203-130,231-121,252c13,29,261,455,275,473
		c7,9,78,12,292,12h283L8161,8063z M1927,7540c78-135,140-251,137-259s-66-122-142-252l-137-238l-290-1h-290l-144,250l-143,250
		l77,132c43,73,109,186,147,251l69,117l287-2l287-3L1927,7540z M3713,7540c121-212,137-245,128-264c-7-12-74-127-149-256l-138-235
		l-277-2l-277-2l-24,37c-35,54-266,460-266,468c0,5,58,106,238,413l55,94l285-5l286-5L3713,7540z M5487,7534l144-251l-143-246
		l-143-247l-290,3l-289,2l-143,249l-142,250l18,30c18,29,130,221,230,394l42,72l286-2l286-3L5487,7534z M7265,7544
		c77-135,140-251,140-259c0-7-63-122-140-254l-140-241h-287h-286l-142,247c-83,145-139,255-137,265c3,9,67,123,142,253l137,235h287
		h286L7265,7544z M2810,7034c74-130,139-245,144-255c7-14-23-73-134-264l-143-245h-291h-292l-138,243c-77,133-139,247-139,252
		c0,6,64,122,144,258l144,247h285h285L2810,7034z M4597,7020l142-249l-145-251l-146-250h-282h-281l-143,250l-143,249l92,158
		c50,87,116,200,146,251l54,92h282l282-1L4597,7020z M6378,7014l143-252l-143-246l-143-246l-289,3l-289,2l-139,243
		c-76,134-138,249-136,257c2,7,66,121,143,254l140,241l285-2l284-3L6378,7014z M7937,7261l93-6l140-244l140-243l-147-254l-148-254
		l-215,1c-118,1-248,4-287,8l-73,6l-141,245c-121,211-139,247-130,267c12,27,260,453,274,471C7453,7271,7761,7274,7937,7261z
		 M9970,6999l143-250l-19-33c-10-18-75-130-144-249l-125-216l-290-1h-291l-143,251c-110,192-141,255-135,268c5,10,70,122,144,250
		l135,231h291h292L9970,6999z M3315,6740h253l141-248c77-136,141-252,141-256c0-5-64-119-141-253l-141-243l-286,2l-286,3l-144,252
		l-144,252l92,158c224,382,199,346,232,339C3049,6743,3176,6740,3315,6740z M5488,6499l143-251l-61-107c-34-58-99-170-144-248
		l-81-142l-285-1h-285l-142,250c-79,137-143,255-143,261c0,5,32,64,70,130c39,65,102,173,140,239l71,120h287h287L5488,6499z
		 M7270,6500c111-195,141-255,134-269c-5-10-70-122-144-250l-135-231h-285h-286l-143,250c-78,138-141,254-139,259s66,117,143,250
		l140,241h286h287L7270,6500z M9047,6515c73-126,137-240,144-251c10-19-6-51-132-268l-144-246h-291h-292l-141,248l-141,249l146,251
		l147,252l286-2l286-3L9047,6515z M2820,5980c88-155,140-256,136-266c-9-23-267-467-280-481c-9-10-77-11-291-6l-280,6l-120,210
		c-66,116-131,229-144,253l-23,42l143,246l144,246h286h287L2820,5980z M4351,6220h107l141-246c78-135,139-249,138-252
		c-2-4-68-118-147-255l-143-247l-280,2l-279,3l-144,249c-78,138-141,252-140,255c43,76,265,454,279,475l21,29l170-6
		C4168,6223,4293,6220,4351,6220z M6379,5979c133-232,142-253,132-277c-7-14-71-126-142-249l-131-223h-288h-288l-142,250
		c-78,137-140,253-138,258c1,5,66,118,143,250l140,242h285h285L6379,5979z M8150,5998c74-128,138-240,143-249c7-11-27-77-136-265
		l-145-249l-283-3l-284-2l-140,246c-77,135-140,251-140,257c0,7,63,121,140,254l140,242l286,1h286L8150,5998z M3695,5488
		c70-123,135-237,146-253l18-30l-143-245l-142-245h-289h-289l-143,249l-143,249l136,236c76,130,142,242,147,249c7,9,78,12,292,12
		h283L3695,5488z M5490,5460l143-250l-63-108c-34-59-99-171-144-249l-81-142h-285h-285l-139,244c-76,134-139,247-140,250
		c0,3,64,118,144,256l145,249h281h282L5490,5460z M7263,5470c75-132,138-243,139-248c2-5-62-122-142-260l-145-251l-280-1h-280
		l-144,249l-143,250l93,158c50,87,116,200,146,251l54,92h282h283L7263,5470z M9050,5464c78-135,139-251,137-257c-3-7-68-120-145-252
		l-140-240h-287h-287l-139,240c-77,132-138,247-137,256c2,9,66,125,143,257l140,242h286h287L9050,5464z M1903,5505
		c60-104,124-217,142-250l34-60l-143-245l-142-245l-286-3l-286-2l-123,212c-67,117-132,231-145,253l-23,40l122,210
		c67,116,132,227,144,248l23,37l287-2l287-3L1903,5505z M8016,5187c14-18,277-485,277-492c0-12-270-474-288-494c-11-11-62-12-289-6
		l-275,8l-141,244l-140,244l126,217c69,119,137,234,151,256l25,39l277-8C7891,5191,8016,5187,8016,5187z M9802,5181
		c18-17,279-484,276-495c-2-7-66-121-143-254l-140-242l-289,3l-289,2l-143,250l-143,250l19,30c10,16,73,125,140,240
		c67,116,126,215,131,221C9230,5197,9789,5193,9802,5181z M802,5184l105-7l138-241c76-133,138-245,138-251c0-5-65-122-144-258
		l-144-248l-283,2l-283,1l-24,37c-12,20-78,132-145,250C53,4656,39,4686,49,4706c12,28,260,454,274,472C334,5191,615,5195,802,5184z
		 M4474,5153c14-21,81-136,149-256l124-218l-145-249l-146-250h-85c-47,0-177,3-287,7l-202,6l-141,248l-142,249l92,157
		c50,87,116,200,146,251l54,92h279h280L4474,5153z M6379,4944c78-136,141-251,141-256s-64-120-142-254l-142-244l-286,2l-285,3
		l-132,230c-73,127-137,240-144,251c-10,19,6,51,132,268l144,246h287h286L6379,4944z M11729,4940l142-250l-144-248l-144-247l-289-2
		l-289-3l-143,250c-127,224-141,253-131,273c23,42,262,452,272,465c7,9,79,12,296,12h287L11729,4940z M2823,4937
		c75-133,137-247,137-252c0-6-65-120-144-255l-143-245l-281-3l-280-2l-141,246c-78,135-141,251-141,257s64,120,141,254l142,243h286
		l286-1L2823,4937z M9046,4424l145-252l-148-252l-147-253l-65,7c-36,3-164,6-283,6h-216l-143,248c-78,136-142,252-142,257
		c0,6,45,87,100,180c54,94,118,203,142,243l42,72l285-2l285-3L9046,4424z M1671,4663l126-6l138-240c76-132,138-245,138-251
		c0-13-269-475-286-493c-9-9-82-10-294-6l-283,6l-140,244c-78,135-140,248-138,252s68,118,147,254l144,247h161
		C1473,4670,1602,4667,1671,4663z M3707,4430c75-129,138-243,140-252c3-10-53-117-138-263l-143-245h-286l-285,1l-139,244
		c-87,154-136,251-132,261c5,14,238,418,272,472l15,22l280-2l280-3L3707,4430z M5489,4420l143-251l-149-255l-148-256l-74,6
		c-41,3-167,6-280,6h-206l-140,246c-77,136-139,251-137,257c2,5,67,120,145,253l142,244h280h281L5489,4420z M7248,4450
		c68-118,133-232,144-252l21-36l-143-246l-142-246h-287h-287l-143,250c-78,138-141,254-139,259s66,117,143,250l140,241l284-2l285-3
		L7248,4450z M10831,4425c76-132,139-246,139-253s-64-122-142-257l-143-245h-285h-285l-135,236c-74,130-139,245-144,255
		c-7,14,23,73,134,264l143,245l290-2l289-3L10831,4425z M12618,4423c78-137,142-252,142-256c0-5-64-118-142-253l-143-244h-290
		l-290,1l-142,249l-141,250l145,250l146,250h287h286L12618,4423z M6379,3905c78-134,141-248,141-252s-65-118-143-253l-143-245
		l-281-3l-281-2l-141,245c-78,134-141,249-141,255c0,11,64,124,220,390l68,115l280-3l281-3L6379,3905z M2822,3896l145-253l-143-244
		l-142-244l-288-2l-289-3l-142,249l-143,249l147,251l146,251h282h282L2822,3896z M4574,3950c62-107,126-220,143-250l32-55l-143-245
		l-142-245h-289h-289l-143,249c-124,217-141,251-131,270c22,42,261,451,271,464c7,9,74,12,295,10l285-3L4574,3950z M8157,3900
		l142-250l-146-250l-145-250h-282h-281l-143,251l-143,251l77,131c42,73,108,185,146,250l69,117h282l282-1L8157,3900z M9940,3903
		c77-136,139-252,138-258c-2-7-66-121-143-253l-140-242h-286h-286l-145,253l-144,253l113,195c63,107,127,218,143,247l30,52h289h289
		L9940,3903z M11727,3896l142-249l-143-246l-144-246l-288-2l-289-3l-140,246c-77,135-140,250-140,257s63,121,140,254l140,243l289-3
		l290-2L11727,3896z M7132,3621c13-12,278-481,278-492c0-6-64-121-142-255l-142-244h-282h-282l-147,256l-146,255l137,237
		c76,130,141,242,145,248C6560,3637,7119,3633,7132,3621z M9037,3405c73-126,137-239,143-250c9-18-10-56-136-274l-147-253l-280,4
		l-279,3l-143,250c-127,220-142,251-132,270c7,12,73,126,147,254l135,233l280-4l280-3L9037,3405z M1932,3382c76-134,138-249,136-256
		s-66-122-143-254l-140-242l-289,3l-289,2l-143,250c-128,223-142,252-130,270c7,11,72,122,145,248l133,227l290-2l291-3L1932,3382z
		 M3695,3408c70-123,135-237,145-253l19-30l-143-245l-143-245l-289-2l-289-3l-142,250l-143,249l146,250l146,251h283h283L3695,3408z
		 M5275,3624l80-7l143-250l142-250l-143-246l-143-246l-200-3c-109-1-239,1-289,5l-89,8l-142,247l-141,247l146,250l145,251h206
		C5103,3630,5231,3627,5275,3624z M10811,3418c67-117,132-231,144-253l23-40l-145-247l-144-248h-288h-287l-143,250
		c-78,138-141,254-139,259s66,117,143,250l140,241h287h286L10811,3418z M9938,2865c124-215,142-252,133-272c-17-38-263-457-276-472
		c-10-11-63-12-292-6l-279,8l-135,235c-73,129-138,242-142,252c-7,13,27,78,135,264l143,246l285-3l285-2L9938,2865z M2827,2855
		c129-225,141-251,129-270c-7-11-72-122-145-247l-133-228h-288h-288l-141,246c-78,136-141,250-141,255s64,120,143,254l142,245l289-3
		l290-2L2827,2855z M4608,2859l143-251l-144-246l-144-247l-285-3l-286-2l-142,247c-83,145-139,255-137,265c3,9,67,123,142,253
		l137,235h287l286-1L4608,2859z M6379,2864c78-136,141-251,141-258c0-6-64-120-143-254l-142-243l-280,1c-154,0-283,4-287,8
		c-3,4-68,114-143,245c-82,143-134,244-131,254c6,13,239,418,272,471c14,22,15,22,293,22h279L6379,2864z M8162,2855l146-255
		l-142-243l-142-242h-289h-289l-143,249c-78,137-141,252-139,255c5,9,139,239,216,371l71,120h282h283L8162,2855z M3718,2334l143-252
		l-143-246l-143-246l-289,3l-289,2l-143,248l-142,249l27,46c15,26,80,138,145,250l118,202l286-2l286-3L3718,2334z M5498,2340
		l142-251l-144-247l-144-247l-284-3l-285-2l-139,242c-76,133-140,248-142,255c-2,8,60,124,139,258l142,245h286h286L5498,2340z
		 M7275,2343c77-136,139-251,137-257s-67-120-145-253l-141-243h-282h-282l-142,247c-77,136-138,253-135,261c5,13,240,420,271,470
		c14,22,15,22,297,22l282-1L7275,2343z M9053,2335l145-254l-142-243l-141-243h-289h-288l-139,240c-76,132-138,246-139,253
		c0,8,64,124,142,258l142,244h282h281L9053,2335z M2827,1820l143-250l-146-250l-146-250h-287h-287l-143,251
		c-110,192-141,255-135,268c5,10,70,122,144,250l135,231h290h290L2827,1820z M4606,1819l141-245l-146-252l-146-252l-284,3l-284,2
		l-139,243c-76,134-138,249-136,256s66,121,143,254l140,242l285-3l285-2L4606,1819z M6387,1816l142-249l-24-41
		c-13-23-78-133-143-246l-120-205h-288h-288l-142,248l-142,248l146,250l145,249l286-2l285-3L6387,1816z M8165,1824
		c77-136,139-251,137-257c-2-5-67-119-144-253l-142-244h-282h-282l-133,233c-73,127-139,241-146,252c-11,19,0,43,118,245
		c72,124,137,235,145,248c14,22,15,22,302,22h287L8165,1824z M9951,1825c76-132,138-245,138-250c1-6-63-121-142-255l-142-245h-289
		h-289l-138,240c-76,132-138,246-138,253c-1,7,63,123,141,258l142,244l289-2l290-3L9951,1825z M9054,1307c77-133,139-247,139-252
		c0-6-64-122-143-258l-144-247h-285h-286l-143,250c-128,225-142,252-131,272c31,59,263,455,275,468c11,13,54,15,296,12l283-3
		L9054,1307z M3719,1299l144-251l-19-33c-10-17-75-129-144-248l-125-216h-290l-290-1l-143,250l-143,249l92,158
		c50,87,116,200,146,251l54,92h287h287L3719,1299z M5495,1304c77-135,140-248,139-251c0-3-65-117-145-254l-144-249l-281,1
		c-252,0-283,2-296,17c-15,18-266,454-270,471c-2,5,62,122,142,260l145,251h285h285L5495,1304z M7275,1302c77-135,140-251,140-258
		c0-6-63-120-140-253l-140-241l-289,2l-289,3l-142,249l-143,249l62,106c34,58,100,170,145,249l83,142l286-1h287L7275,1302z
		 M10846,1297l141-248l-145-249l-145-250h-288h-287l-141,246c-78,136-141,251-141,256s64,120,142,254l142,244l290-2l290-3
		L10846,1297z M6120,1034l126-7l142-247l142-248l-146-251L6238,30l-171,1c-95,1-226,4-291,8l-120,6l-138,240
		c-75,132-138,243-138,248c0,4,66,120,146,257l146,250h161C5922,1040,6051,1037,6120,1034z M9645,1030h161l143-250l143-250l-145-248
		L9803,35l-286-3l-287-2l-23,37c-63,99-267,465-264,471c2,4,69,119,148,256l144,249l125-7C9429,1033,9557,1030,9645,1030z"/>
</g>
</svg>
