<?xml version="1.0" encoding="utf-8"?>
<!-- Generator: Adobe Illustrator 21.1.0, SVG Export Plug-In . SVG Version: 6.00 Build 0)  -->
<svg version="1.1" id="Layer_1" xmlns="http://www.w3.org/2000/svg" xmlns:xlink="http://www.w3.org/1999/xlink" x="0px" y="0px"
	 viewBox="0 0 64 32" style="enable-background:new 0 0 64 32;" xml:space="preserve">
<style type="text/css">
	.st0{fill:#FFFFFF;}
</style>
<path class="st0" d="M57,0c-4.5,0-7.5,4.8-8.5,6.8C47.8,6.3,46.9,6,46,6c-5.1,0-6.5-1.1-7.9-2.1C36.4,2.5,34.2,1.8,32,2
	c-2.2-0.2-4.4,0.5-6.1,1.9C24.5,4.9,23.1,6,18,6c-0.9,0-1.8,0.3-2.5,0.8c-1-2-4-6.8-8.5-6.8C2.6,0,0,4,0,11c0,4,3,14,10,14h8.2
	c5.5,7.6,16.2,9.3,23.8,3.7c1.4-1,2.7-2.3,3.7-3.7H54c7,0,10-10,10-14C64,4,61.4,0,57,0z M10,23c-5.3,0-8-8.4-8-12c0-2.7,0.5-9,5-9
	c4.3,0,7.1,6.4,7.1,6.4c-0.8,1.4-1.1,3-1.1,4.6c0.7,3.5,2,6.9,3.9,10H10z M32,30c-5.8,0-10.4-2.8-13.7-8.5c-1.5-2.7-2.6-5.6-3.3-8.6
	c0-0.6,0.3-4.9,3-4.9c5.8,0,7.5-1.3,9.1-2.5C28.4,4.4,30.2,3.8,32,4c1.8-0.2,3.6,0.4,4.9,1.5C38.5,6.7,40.2,8,46,8
	c2.7,0,3,4.3,3,4.9C48.8,14.2,45.5,30,32,30z M54,23h-6.9c1.8-3.1,3.2-6.5,3.9-10c0-1.6-0.4-3.2-1.1-4.6c0,0,2.9-6.4,7.1-6.4
	c4.5,0,5,6.3,5,9C62,14.6,59.3,23,54,23z"/>
<path class="st0" d="M42.3,12.1C42.1,12,36.1,10,32,10s-10.1,2-10.3,2.1c-0.5,0.2-0.8,0.7-0.6,1.3c0.2,0.5,0.7,0.8,1.3,0.6l0,0
	c0.1,0,5.9-1.9,9.7-1.9s9.6,1.9,9.7,1.9c0.5,0.2,1.1-0.1,1.3-0.6S42.8,12.2,42.3,12.1z"/>
<path class="st0" d="M42.3,17.1C42.1,17,36.1,15,32,15s-10.1,2-10.3,2.1c-0.5,0.2-0.8,0.7-0.6,1.3c0.2,0.5,0.7,0.8,1.3,0.6
	c0.1,0,5.9-1.9,9.7-1.9s9.6,1.9,9.7,1.9c0.5,0.2,1.1-0.1,1.3-0.6S42.8,17.2,42.3,17.1z"/>
<path class="st0" d="M41.4,22.1c-3-1.2-6.2-1.9-9.4-2.1c-3.2,0.2-6.4,0.9-9.4,2.1c-0.5,0.2-0.8,0.8-0.6,1.3c0.2,0.5,0.8,0.8,1.3,0.6
	c2.8-1.1,5.7-1.7,8.6-1.9c3,0.2,5.9,0.8,8.6,1.9c0.5,0.2,1.1,0,1.3-0.6C42.1,22.9,41.9,22.3,41.4,22.1z"/>
</svg>
