<svg id="Layer_1" data-name="Layer 1" xmlns="http://www.w3.org/2000/svg" viewBox="0 0 32 20"><defs><style>.cls-1{fill:#79589f;}</style></defs><title>mask2</title><path class="cls-1" d="M29,5H25.28L17.71.47a3.31,3.31,0,0,0-3.41,0L6.72,5H3A3,3,0,0,0,0,8v4a3,3,0,0,0,3,3H6.61l3.31,3,.09.07a10.35,10.35,0,0,0,12,0l.09-.07,3.31-3H29a3,3,0,0,0,3-3V8A3,3,0,0,0,29,5ZM2,12V8A1,1,0,0,1,3,7H6v6H3A1,1,0,0,1,2,12Zm22,1.56L20.77,16.5a8.33,8.33,0,0,1-9.54,0L8,13.57v-7l7.32-4.38a1.33,1.33,0,0,1,1.36,0L24,6.57ZM30,12a1,1,0,0,1-1,1H26V7h3a1,1,0,0,1,1,1Z"/></svg>