<?xml version="1.0" encoding="utf-8"?>
<!-- Generator: Adobe Illustrator 21.1.0, SVG Export Plug-In . SVG Version: 6.00 Build 0)  -->
<svg version="1.1" id="Layer_1" xmlns="http://www.w3.org/2000/svg" xmlns:xlink="http://www.w3.org/1999/xlink" x="0px" y="0px"
	 viewBox="0 0 91.6 108.8" style="enable-background:new 0 0 91.6 108.8;" xml:space="preserve">
<style type="text/css">
	.st0{fill:#FFFFFF;}
</style>
<path class="st0" d="M67.7,18.3c-0.3,0-0.5-0.1-0.8-0.2l-0.7-0.4c-5.7-3.6-21-13-33.5-1c-0.6,0.6-1.5,0.6-2.1,0
	c-0.6-0.6-0.6-1.5,0-2.1c14.2-13.7,31.5-2.9,37.2,0.6l0.7,0.4c0.7,0.4,0.9,1.4,0.5,2.1C68.7,18.1,68.3,18.3,67.7,18.3L67.7,18.3z"/>
<path class="st0" d="M70.4,47.2C66.3,45,61.4,44.6,57,46c-0.9,0.3-1.4,1.3-1.2,2.2l0,0c0.2,1,1.1,1.7,2.2,1.5c2.4-0.3,6.6-0.7,9.6,0
	c2.2,0.5,3.1,0,3.5-0.6C71.3,48.4,71,47.6,70.4,47.2z"/>
<path class="st0" d="M62.5,56.6L62.5,56.6c1.7,0,3.1,1.4,3.1,3.1v1.9c0,1.7-1.4,3.1-3.1,3.1h0c-1.7,0-3.1-1.4-3.1-3.1v-1.9
	C59.4,58,60.8,56.6,62.5,56.6z"/>
<path class="st0" d="M21.4,47.2c4.1-2.2,8.9-2.7,13.4-1.3c0.9,0.3,1.4,1.3,1.2,2.2l0,0c-0.2,1-1.1,1.7-2.2,1.5
	c-2.4-0.3-6.6-0.7-9.6,0c-2.2,0.5-3.1,0-3.5-0.6C20.5,48.4,20.7,47.6,21.4,47.2z"/>
<path class="st0" d="M29.3,64.7L29.3,64.7c-1.7,0-3.1-1.4-3.1-3.1v-1.9c0-1.7,1.4-3.1,3.1-3.1h0c1.7,0,3.1,1.4,3.1,3.1v1.9
	C32.4,63.3,31,64.7,29.3,64.7z"/>
<path class="st0" d="M67.6,18.3c-0.3,0-0.5-0.1-0.8-0.2l-0.7-0.4c-5.7-3.6-21-13-33.5-1c-0.6,0.6-1.6,0.5-2.1-0.1
	c-0.5-0.6-0.5-1.5,0-2.1c14.2-13.7,31.5-2.9,37.2,0.6l0.7,0.4c0.7,0.4,0.9,1.4,0.5,2.1C68.6,18.1,68.2,18.3,67.6,18.3L67.6,18.3z"/>
<path class="st0" d="M67.9,58.9c-0.4,0-0.7-0.1-1-0.4c-2.2-1.7-5.1-2-7.6-0.7c-0.7,0.4-1.6,0.2-2-0.6s-0.2-1.6,0.6-2
	c3.6-1.9,7.9-1.4,11.1,1.1c0.6,0.6,0.7,1.5,0.1,2.1C68.8,58.7,68.4,58.9,67.9,58.9L67.9,58.9z"/>
<path class="st0" d="M23.6,58.9c-0.8,0-1.5-0.7-1.5-1.5c0-0.4,0.2-0.8,0.5-1.1c3.1-2.6,7.5-3,11.1-1.1c0.7,0.4,1,1.3,0.6,2
	c-0.4,0.7-1.3,1-2,0.6c-2.5-1.3-5.4-1-7.6,0.7C24.4,58.8,24,58.9,23.6,58.9z"/>
<path class="st0" d="M87.7,60.5c0.5-6.6,0.5-13.3,0-19.9c-0.1-1,0.3-2,1.1-2.7c1.6-1.4,2.6-3.4,2.6-5.5c0.5-7.2-20.8-29.5-38.8-32.1
	C32.4-2,25.7,7.6,23.7,11.8c-0.6,1.1-1.5,2.1-2.7,2.5C8.2,19.8,0.3,34.8,0.3,41.2c0,2.7,1.3,3.6,2,3.9C3,45.4,3,48.4,3,50.6
	c-0.1,3.3,0.2,6.7,0.8,10C0.3,63-0.9,67.7,0.7,73.1c1.2,3.5,3.8,6.3,7.1,8c1.4,0.7,3,1.1,4.6,1.1c0.4,0,0.8,0,1.1-0.1
	c0.9,3,2.3,5.9,4,8.6c0.3,0.8,0.6,1.6,1.1,2.3c4.5,7.6,16.5,15.8,27.1,15.8s22.5-8.2,27.1-15.8c0.4-0.7,0.8-1.5,1.1-2.3
	c1.7-2.6,3.1-5.5,4-8.6c0.4,0.1,0.8,0.1,1.1,0.1c1.6,0,3.2-0.4,4.6-1.1c3.3-1.6,5.9-4.5,7.1-8C92.5,67.7,91.3,62.9,87.7,60.5z
	 M9.2,78.4c-2.6-1.3-4.6-3.5-5.6-6.2c-1.4-4.4-0.4-8.1,2.6-9.5c1.6-0.8,3.5-0.9,5.2-0.4c0,1.3,0,2.8,0.1,4.6
	c-1.1-0.5-2.3-0.8-3.5-0.8C7,66.2,6.4,67,6.5,67.8c0.1,0.8,0.8,1.4,1.6,1.4c1.4,0,2.7,0.7,3.5,1.7c0.2,2.8,0.6,5.6,1.2,8.3
	C11.6,79.2,10.3,79,9.2,78.4z M16.7,82.1c-0.3-0.9-0.6-1.8-0.8-2.7c-0.9-3.9-1.4-7.9-1.6-12c1.5,2.3,3.2,4.5,4.9,6.6
	C17.9,76.5,17.1,79.2,16.7,82.1L16.7,82.1z M70.3,91.4c-4,6.8-15.1,14.4-24.5,14.4s-20.5-7.6-24.5-14.4c-2.6-4.4-2.1-11.6,1.2-16.8
	c4-6.2,16.4-9.7,23.4-9.7s19.3,3.4,23.4,9.7C72.4,79.8,72.9,87,70.3,91.4L70.3,91.4z M75.6,79.4c-0.2,0.9-0.5,1.8-0.8,2.7
	c-0.3-2.8-1.2-5.6-2.6-8c1.8-2.1,3.4-4.3,4.9-6.6C77,71.5,76.5,75.5,75.6,79.4z M70.4,71.5C65,65.3,53,62,45.8,62
	s-19.2,3.3-24.7,9.5c-1.8-2.2-5.2-6.6-6.8-10.4c0.4-13.3,6-30.1,17.4-35.8c0.7-0.3,1.3-0.7,1.8-1.2c6.7-5.6,20.4-3.6,27.8,1.9
	c11.2,8.4,15.5,24.1,15.9,35.1C75.7,64.8,72.2,69.3,70.4,71.5L70.4,71.5z M63.1,23.6c-8.4-6.3-23.7-8.4-31.5-1.8
	c-0.4,0.3-0.8,0.6-1.2,0.8c-12.1,6.1-18.1,22.4-19,36.6c-1.6-0.4-3.2-0.3-4.8,0.1c-0.5-2.9-0.7-5.8-0.6-8.7c0-4,0-7.2-2.5-8.3
	c-0.1-0.1-0.4-0.8-0.1-2.7c1.2-6.7,8.3-18.3,18.7-22.7c1.9-0.8,3.4-2.2,4.2-4C28.1,9.4,34,1.2,52.2,3.3C69,5.7,88.8,26.8,88.4,32.3
	c0,1.4-0.6,2.7-1.7,3.5c-1.4,1.3-2.2,3.2-2,5.1c0.4,6.1,0.5,12.3,0.1,18.4c-1.5-0.4-3.1-0.4-4.6-0.1C79.4,47.2,74.6,32.1,63.1,23.6z
	 M88,72.2c-1,2.7-3,4.9-5.6,6.2c-1.1,0.6-2.4,0.9-3.7,0.8c0.6-2.7,1-5.5,1.2-8.3c0.9-1.1,2.1-1.7,3.5-1.7c0.8,0.1,1.5-0.6,1.6-1.4
	s-0.6-1.5-1.4-1.6c-1.2,0-2.4,0.2-3.5,0.8c0.1-1.8,0.1-3.3,0.1-4.6c1.7-0.5,3.6-0.4,5.2,0.4C88.3,64.1,89.3,67.8,88,72.2z"/>
<path class="st0" d="M25.8,78.6c-0.8,0-1.5-0.7-1.5-1.5c0-0.4,0.2-0.8,0.5-1.1c5.9-4.9,13.3-7.8,20.9-8c7.7,0.3,15,3.1,20.9,8
	c0.6,0.5,0.7,1.5,0.1,2.1s-1.5,0.7-2.1,0.1c-5.3-4.4-12-7-18.9-7.3c-6.9,0.3-13.6,2.8-18.9,7.3C26.6,78.5,26.2,78.6,25.8,78.6z"/>
</svg>
