<?xml version="1.0" encoding="utf-8"?>
<!-- Generator: Adobe Illustrator 21.1.0, SVG Export Plug-In . SVG Version: 6.00 Build 0)  -->
<svg version="1.1" id="Layer_1" xmlns="http://www.w3.org/2000/svg" xmlns:xlink="http://www.w3.org/1999/xlink" x="0px" y="0px"
	 viewBox="0 0 95 94" style="enable-background:new 0 0 95 94;" xml:space="preserve">
<style type="text/css">
	.st0{fill:#FFFFFF;}
</style>
<g>
	<path class="st0" d="M94.3,25.6c-1.4-6.9-4.7-13.2-9.6-18.3c-1.6-1.7-4.3-1.7-6-0.1s-1.7,4.3-0.1,6c3.8,3.8,6.3,8.7,7.3,14
		c1.1,5.6,0.5,11.3-1.8,16.5c-0.9,2.1,0,4.6,2.2,5.6c0.6,0.2,1.1,0.4,1.7,0.4c1.6,0,3.2-0.9,3.9-2.5C94.9,40.4,95.7,32.9,94.3,25.6z
		"/>
	<path class="st0" d="M76.6,20.8c-1.3-1.9-3.9-2.5-5.8-1.2s-2.5,3.9-1.2,5.8c0.9,1.4,1.6,3,1.9,4.7c0.4,1.9,0.3,3.9-0.2,5.8
		c-0.6,2.3,0.8,4.6,3,5.1c0.4,0.1,0.7,0.1,1.1,0.1c1.9,0,3.6-1.3,4.1-3.2c0.8-3.1,0.9-6.4,0.3-9.5C79.2,25.7,78.2,23.1,76.6,20.8z"
		/>
	<path class="st0" d="M77.9,59.9c-1.2-1.4-2.5-2.8-3.6-4.3l-7.6-10.2c-1.3-1.7-2.2-3.7-2.6-5.8l-1.8-9.1
		c-1.6-7.8-6.1-14.6-12.7-19.1c-4.6-3.1-9.8-4.8-15.1-5L34.1,4c-0.5-2.7-3.2-4.4-5.8-3.9L23.7,1c-2.7,0.5-4.4,3.2-3.9,5.8l0.5,2.5
		C8.2,15,1,28.4,3.6,42.1l1.8,9.1c0.4,2.1,0.4,4.3-0.2,6.3L2.1,69.8c-0.5,1.8-1.1,3.6-1.7,5.4c-0.5,1.4-0.5,2.7-0.2,3.8
		c0.6,3.3,3.7,7.4,14.7,8.7c-0.3-1.3-0.5-2.6-0.5-4c0-1.2,0.1-2.4,0.4-3.6c-4.4-0.6-6.9-1.7-7.2-2.5c0.1-1.7,6.1-6.8,19.3-10.8
		c0.1,0,0.2-0.1,0.3-0.1c0.5-0.1,0.9-0.3,1.4-0.4V74c-3.9,1.5-6.6,5.2-6.6,9.6C21.9,89.4,26.5,94,32.2,94s10.3-4.6,10.3-10.3
		c0-4.4-2.7-8.1-6.6-9.6v-9.8c0.8-0.2,1.6-0.4,2.5-0.5c7.5-1.5,13.8-2,18.9-2c9.2,0,14.3,1.8,14.9,3c-0.2,1.9-7.6,7.8-23.6,12.1
		c0.9,2.1,1.3,4.4,1.3,6.8c0,0.2,0,0.4,0,0.6c7.2-1.9,13.6-4.3,18.7-7c10.2-5.5,11.6-10.6,10.9-13.9C79.4,62.3,78.9,61.1,77.9,59.9z
		 M57.4,54.3c-6.2,0-13.2,0.7-20.4,2.2c-10,1.9-19.2,5-25.9,8.6l1.4-5.6c0.8-3.1,0.9-6.4,0.3-9.6L11,40.8
		c-1.2-5.9,0.1-11.9,3.4-16.9c3.4-5,8.4-8.4,14.3-9.5c1.4-0.3,2.9-0.4,4.4-0.4c4.4,0,8.7,1.3,12.5,3.8c5,3.3,8.4,8.4,9.5,14.3
		l1.8,9.1c0.6,3.2,2,6.2,3.9,8.8l3.5,4.7C62.1,54.4,59.8,54.3,57.4,54.3z"/>
</g>
</svg>
