<svg width="308" height="381" viewBox="0 0 308 381" fill="none" xmlns="http://www.w3.org/2000/svg">
<path fill-rule="evenodd" clip-rule="evenodd" d="M152.708 263.832C225.563 263.832 284.624 204.771 284.624 131.916C284.624 59.0607 225.563 0 152.708 0C79.8532 0 20.7925 59.0607 20.7925 131.916C20.7925 204.771 79.8532 263.832 152.708 263.832ZM126.123 55.7778C128.6 54.4404 130.283 51.821 130.283 48.8085C130.283 44.4372 126.739 40.8935 122.368 40.8935C117.997 40.8935 114.453 44.4372 114.453 48.8085C114.453 53.1798 117.997 56.7234 122.368 56.7234C122.947 56.7234 123.511 56.6613 124.054 56.5433L142.589 106.627C136.732 109.071 131.868 113.418 128.767 118.894L103.606 106.166C103.797 105.549 103.899 104.893 103.899 104.213C103.899 100.571 100.946 97.6176 97.3036 97.6176C93.6609 97.6176 90.7079 100.571 90.7079 104.213C90.7079 107.856 93.6609 110.809 97.3036 110.809C99.4785 110.809 101.407 109.757 102.609 108.133L127.756 120.854C126.316 123.934 125.412 127.315 125.163 130.877L68.2785 129.675C68.1403 125.06 64.356 121.362 59.7078 121.362C54.9723 121.362 51.1333 125.201 51.1333 129.936C51.1333 134.672 54.9723 138.511 59.7078 138.511C63.7762 138.511 67.1829 135.677 68.062 131.876L125.094 133.081C125.128 138.187 126.508 142.974 128.897 147.104L95.2388 168.308C93.5457 166.225 90.9632 164.895 88.0699 164.895C82.97 164.895 78.8358 169.029 78.8358 174.129C78.8358 179.229 82.97 183.363 88.0699 183.363C93.1697 183.363 97.304 179.229 97.304 174.129C97.304 172.713 96.9854 171.372 96.4161 170.173L130.074 148.969C132.451 152.429 135.573 155.337 139.209 157.462L128.343 178.4C127.707 178.196 127.029 178.086 126.325 178.086C122.682 178.086 119.729 181.039 119.729 184.682C119.729 188.324 122.682 191.277 126.325 191.277C129.968 191.277 132.921 188.324 132.921 184.682C132.921 182.531 131.892 180.621 130.299 179.417L141.155 158.499C144.898 160.311 149.098 161.327 153.535 161.327C154.159 161.327 154.779 161.307 155.394 161.268L159.838 201.952C155.791 202.639 152.708 206.162 152.708 210.405C152.708 215.141 156.547 218.98 161.283 218.98C166.019 218.98 169.858 215.141 169.858 210.405C169.858 205.927 166.425 202.251 162.047 201.865L157.587 161.041C165.824 159.866 172.924 155.162 177.305 148.509L211.774 169.592C211.119 170.966 210.752 172.505 210.752 174.129C210.752 179.957 215.477 184.682 221.305 184.682C227.133 184.682 231.858 179.957 231.858 174.129C231.858 168.3 227.133 163.576 221.305 163.576C217.891 163.576 214.856 165.197 212.927 167.711L178.446 146.621C180.696 142.549 181.976 137.867 181.976 132.886C181.976 128.751 181.094 124.822 179.507 121.277L225.265 99.3595C226.683 101.49 229.107 102.893 231.858 102.893C236.229 102.893 239.773 99.3498 239.773 94.9785C239.773 90.6072 236.229 87.0636 231.858 87.0636C227.486 87.0636 223.943 90.6072 223.943 94.9785C223.943 95.8125 224.072 96.6163 224.311 97.3712L178.528 119.301C175.507 113.755 170.695 109.327 164.868 106.792L178.135 73.6261C178.867 73.7872 179.629 73.8721 180.41 73.8721C186.239 73.8721 190.963 69.1473 190.963 63.3189C190.963 57.4905 186.239 52.7656 180.41 52.7656C174.582 52.7656 169.857 57.4905 169.857 63.3189C169.857 67.5881 172.392 71.2652 176.039 72.9271L162.813 105.992C159.905 104.989 156.783 104.445 153.535 104.445C150.434 104.445 147.45 104.941 144.656 105.858L126.123 55.7778Z" fill="white"/>
<path d="M0.998047 379.945H14.2776V338.259L46.1132 379.945H57.6339V315.922H44.2664V356.288L13.3981 315.922H0.998047V379.945Z" fill="white"/>
<path d="M104.9 381C124.599 381 138.934 366.05 138.934 347.933V347.757C138.934 329.553 124.775 314.866 105.075 314.866C85.376 314.866 71.0412 329.817 71.0412 347.933V348.109C71.0412 366.313 85.2001 381 104.9 381ZM105.075 368.6C93.4669 368.6 85.2001 359.19 85.2001 347.933V347.757C85.2001 336.5 93.291 327.266 104.9 327.266C116.508 327.266 124.775 336.676 124.775 347.933V348.109C124.775 359.366 116.684 368.6 105.075 368.6Z" fill="white"/>
<path d="M168.754 380.384H180.714L206.745 315.922H192.147L174.91 361.828L157.673 315.922H142.722L168.754 380.384Z" fill="white"/>
<path d="M218.131 379.945H231.674V315.922H218.131V379.945Z" fill="white"/>
<path d="M248.55 379.945H273.262C293.401 379.945 307.296 365.962 307.296 347.933V347.757C307.296 329.729 293.401 315.922 273.262 315.922H248.55V379.945ZM273.262 328.146C285.134 328.146 293.137 336.325 293.137 347.933V348.109C293.137 359.718 285.134 367.72 273.262 367.72H262.005V328.146H273.262Z" fill="white"/>
</svg>
