<?xml version="1.0" encoding="utf-8"?>
<!-- Generator: Adobe Illustrator 21.1.0, SVG Export Plug-In . SVG Version: 6.00 Build 0)  -->
<svg version="1.1" id="Layer_1" xmlns="http://www.w3.org/2000/svg" xmlns:xlink="http://www.w3.org/1999/xlink" x="0px" y="0px"
	 viewBox="0 0 69.2 88.6" style="enable-background:new 0 0 69.2 88.6;" xml:space="preserve">
<style type="text/css">
	.st0{fill:#212121;}
</style>
<path class="st0" d="M68.3,27.2L61,22.6V9.5c0-2.2-1.8-4-4-4h-9.5v-4C47.5,0.7,46.8,0,46,0s-1.5,0.7-1.5,1.5v4h-28v-4
	C16.5,0.7,15.8,0,15,0s-1.5,0.7-1.5,1.5v4H4c-2.2,0-4,1.8-4,4v64c0,2.2,1.8,4,4,4h21l-1,9.9c-0.1,0.8,0.2,1.2,0.8,1.2
	c0.2,0,0.5-0.1,0.8-0.3l8.7-5.3c0.9-0.6,2.2-1.8,2.8-2.7l1.8-2.8H57c2.2,0,4-1.8,4-4v-31L68.9,30C69.5,29.1,69.2,27.8,68.3,27.2z
	 M4,8.5h9.5v3c0,0.8,0.7,1.5,1.5,1.5s1.5-0.7,1.5-1.5v-3h28v3c0,0.8,0.7,1.5,1.5,1.5s1.5-0.7,1.5-1.5v-3H57c0.5,0,1,0.5,1,1V16H3
	V9.5C3,9,3.5,8.5,4,8.5z M3,73.5V19h55v4.5l-2,3.2l-1.5-1c-0.6-0.4-1.2-0.5-1.9-0.5c-1.2,0-2.3,0.6-3,1.6l-9.1,14.4
	c-0.4,0.7-0.2,1.6,0.5,2.1c0.7,0.4,1.6,0.2,2.1-0.5l9.1-14.4c0.1-0.1,0.3-0.2,0.4-0.2c0.1,0,0.2,0,0.3,0.1l1.5,1l-28,44.3
	c-0.2,0.3-0.3,0.6-0.5,1H4C3.5,74.5,3,74,3,73.5z M32.8,80.5l-5.3,3.2l0.6-6.2c0-0.4,0.2-1,0.4-1.5l5.5,3.5
	C33.5,79.9,33.1,80.3,32.8,80.5z M35.6,77L30,73.4l23.5-37.2l5.7,3.6L35.6,77z M58,73.5c0,0.5-0.5,1-1,1H40.8L58,47.3V73.5z
	 M60.8,37.2l-5.7-3.6l5.1-8l5.7,3.6L60.8,37.2z"/>
<path class="st0" d="M15.5,36.7c0.3,0.3,0.7,0.4,1.1,0.3c0.4,0,0.8-0.2,1-0.5l3.5-4.3c0.5-0.6,0.4-1.6-0.2-2.1
	c-0.6-0.5-1.6-0.4-2.1,0.2l-2.6,3.1L15,32.3c-0.6-0.5-1.6-0.4-2.1,0.2s-0.4,1.6,0.2,2.1L15.5,36.7z"/>
<path class="st0" d="M12,42.5h10c2.2,0,4-1.8,4-4v-10c0-2.2-1.8-4-4-4H12c-2.2,0-4,1.8-4,4v10C8,40.7,9.8,42.5,12,42.5z M11,28.5
	c0-0.5,0.5-1,1-1h10c0.5,0,1,0.5,1,1v10c0,0.5-0.5,1-1,1H12c-0.5,0-1-0.5-1-1V28.5z"/>
<path class="st0" d="M26,62.5v-10c0-2.2-1.8-4-4-4H12c-2.2,0-4,1.8-4,4v10c0,2.2,1.8,4,4,4h10C24.2,66.5,26,64.7,26,62.5z M23,62.5
	c0,0.5-0.5,1-1,1H12c-0.5,0-1-0.5-1-1v-10c0-0.5,0.5-1,1-1h10c0.5,0,1,0.5,1,1V62.5z"/>
</svg>
